PathFileType	4	(X/Y/Z)	C:\Users\italobelli\Desktop\GitHub\PTbot_officialCBL\Personal_Results\ABD22_noisy2.trc
DataRate	CameraRate	NumFrames	NumMarkers	Units	OrigDataRate	OrigDataStartFrame	OrigNumFrames
106.125000	106.125000	21	9	m	106.125000	107	850
Frame#	Time		gu		centelbow		EpL		centpxt8		centijc7		ij		ts		aa		ai
			X1	Y1	Z1	X2	Y2	Z2	X3	Y3	Z3	X4	Y4	Z4	X5	Y5	Z5	X6	Y6	Z6	X7	Y7	Z7	X8	Y8	Z8	X9	Y9	Z9

107	0.99882	-0.096188	-0.012547	0.15583	-0.13264	-0.25358	0.18452	-0.14102	-0.24395	0.21412	-0.046816	-0.15316	-0.008669	-0.046816	0.031938	-0.008669	0	0	0	-0.13	0.025916	0.036539	-0.12734	0.021097	0.15568	-0.14409	-0.086716	0.037514
108	1.0082	-0.096213	-0.012429	0.15572	-0.13267	-0.25349	0.18465	-0.14111	-0.24382	0.21422	-0.046816	-0.15316	-0.008669	-0.046816	0.031938	-0.008669	0	0	0	-0.12999	0.025917	0.036427	-0.12737	0.021155	0.15556	-0.14407	-0.086726	0.037482
109	1.0177	-0.096236	-0.012291	0.1556	-0.13271	-0.25334	0.1849	-0.14121	-0.24362	0.21443	-0.046816	-0.15316	-0.008669	-0.046816	0.031938	-0.008669	0	0	0	-0.12997	0.025911	0.036304	-0.1274	0.021235	0.15543	-0.14403	-0.086741	0.037464
110	1.0271	-0.096259	-0.012134	0.15548	-0.13275	-0.25314	0.18527	-0.14132	-0.24336	0.21475	-0.046816	-0.15316	-0.008669	-0.046816	0.031938	-0.008669	0	0	0	-0.12993	0.0259	0.036168	-0.12744	0.021338	0.15529	-0.14396	-0.086761	0.03746
111	1.0365	-0.09628	-0.011957	0.15536	-0.1328	-0.25289	0.18575	-0.14145	-0.24303	0.21517	-0.046816	-0.15316	-0.008669	-0.046816	0.031938	-0.008669	0	0	0	-0.12989	0.025882	0.036021	-0.12747	0.021461	0.15514	-0.14388	-0.086787	0.03747
112	1.0459	-0.0963	-0.011761	0.15523	-0.13286	-0.25259	0.18633	-0.14158	-0.24265	0.2157	-0.046816	-0.15316	-0.008669	-0.046816	0.031938	-0.008669	0	0	0	-0.12984	0.025857	0.035864	-0.12751	0.021604	0.15498	-0.14379	-0.086817	0.037493
113	1.0554	-0.096319	-0.011547	0.15511	-0.13292	-0.25223	0.18703	-0.14172	-0.2422	0.21632	-0.046816	-0.15316	-0.008669	-0.046816	0.031938	-0.008669	0	0	0	-0.12977	0.025827	0.035696	-0.12754	0.021768	0.15481	-0.14367	-0.086853	0.03753
114	1.0648	-0.096337	-0.011316	0.15497	-0.13298	-0.25183	0.18782	-0.14188	-0.24169	0.21703	-0.046816	-0.15316	-0.008669	-0.046816	0.031938	-0.008669	0	0	0	-0.1297	0.025791	0.035519	-0.12757	0.02195	0.15464	-0.14354	-0.086893	0.03758
115	1.0742	-0.096353	-0.011067	0.15484	-0.13305	-0.25137	0.18872	-0.14204	-0.24113	0.21784	-0.046816	-0.15316	-0.008669	-0.046816	0.031938	-0.008669	0	0	0	-0.12963	0.02575	0.035332	-0.12761	0.022151	0.15445	-0.14339	-0.086938	0.037642
116	1.0836	-0.096368	-0.010802	0.15471	-0.13312	-0.25087	0.18971	-0.14221	-0.24051	0.21874	-0.046816	-0.15316	-0.008669	-0.046816	0.031938	-0.008669	0	0	0	-0.12954	0.025702	0.035137	-0.12764	0.02237	0.15426	-0.14323	-0.086987	0.037717
117	1.0931	-0.096382	-0.01052	0.15457	-0.1332	-0.25033	0.19079	-0.14239	-0.23984	0.21972	-0.046816	-0.15316	-0.008669	-0.046816	0.031938	-0.008669	0	0	0	-0.12945	0.025649	0.034934	-0.12767	0.022606	0.15406	-0.14305	-0.08704	0.037804
118	1.1025	-0.096395	-0.010223	0.15443	-0.13328	-0.24973	0.19196	-0.14257	-0.23911	0.22079	-0.046816	-0.15316	-0.008669	-0.046816	0.031938	-0.008669	0	0	0	-0.12935	0.025591	0.034723	-0.1277	0.022859	0.15385	-0.14286	-0.087097	0.037903
119	1.1119	-0.096406	-0.0099112	0.15429	-0.13336	-0.2491	0.19321	-0.14277	-0.23834	0.22193	-0.046816	-0.15316	-0.008669	-0.046816	0.031938	-0.008669	0	0	0	-0.12924	0.025528	0.034506	-0.12773	0.023127	0.15364	-0.14266	-0.087158	0.038014
120	1.1213	-0.096417	-0.0095847	0.15414	-0.13345	-0.24842	0.19455	-0.14297	-0.23751	0.22315	-0.046816	-0.15316	-0.008669	-0.046816	0.031938	-0.008669	0	0	0	-0.12912	0.025459	0.034281	-0.12777	0.023411	0.15342	-0.14244	-0.087222	0.038136
121	1.1307	-0.096426	-0.0092442	0.154	-0.13354	-0.2477	0.19597	-0.14317	-0.23663	0.22444	-0.046816	-0.15316	-0.008669	-0.046816	0.031938	-0.008669	0	0	0	-0.12901	0.025386	0.034051	-0.1278	0.023709	0.1532	-0.14221	-0.08729	0.038269
122	1.1402	-0.096434	-0.0088903	0.15385	-0.13363	-0.24694	0.19746	-0.14338	-0.23571	0.2258	-0.046816	-0.15316	-0.008669	-0.046816	0.031938	-0.008669	0	0	0	-0.12888	0.025308	0.033815	-0.12783	0.024021	0.15297	-0.14197	-0.087361	0.038413
123	1.1496	-0.096441	-0.0085235	0.1537	-0.13373	-0.24614	0.19902	-0.1436	-0.23474	0.22722	-0.046816	-0.15316	-0.008669	-0.046816	0.031938	-0.008669	0	0	0	-0.12875	0.025225	0.033574	-0.12786	0.024347	0.15273	-0.14172	-0.087435	0.038568
124	1.159	-0.096446	-0.0081443	0.15355	-0.13382	-0.2453	0.20065	-0.14382	-0.23372	0.22871	-0.046816	-0.15316	-0.008669	-0.046816	0.031938	-0.008669	0	0	0	-0.12862	0.025137	0.033328	-0.12789	0.024685	0.15249	-0.14146	-0.087513	0.038733
125	1.1684	-0.096451	-0.0077533	0.1534	-0.13392	-0.24442	0.20234	-0.14405	-0.23266	0.23026	-0.046816	-0.15316	-0.008669	-0.046816	0.031938	-0.008669	0	0	0	-0.12848	0.025046	0.033078	-0.12792	0.025035	0.15225	-0.1412	-0.087593	0.038908
126	1.1779	-0.096454	-0.007351	0.15325	-0.13403	-0.24351	0.2041	-0.14428	-0.23156	0.23186	-0.046816	-0.15316	-0.008669	-0.046816	0.031938	-0.008669	0	0	0	-0.12834	0.024949	0.032825	-0.12795	0.025396	0.152	-0.14092	-0.087675	0.039093
127	1.1873	-0.096456	-0.0069379	0.15309	-0.13413	-0.24256	0.20591	-0.14452	-0.23041	0.23352	-0.046816	-0.15316	-0.008669	-0.046816	0.031938	-0.008669	0	0	0	-0.12819	0.024849	0.032569	-0.12798	0.025768	0.15174	-0.14064	-0.08776	0.039288
